<svg width="16" height="12" viewBox="0 0 16 12" fill="none" xmlns="http://www.w3.org/2000/svg">
<path d="M15.4533 5.44011L15.4519 5.43845C15.0398 4.92184 14.0948 3.82505 12.7977 2.85586C11.4993 1.88564 9.83832 1.03611 7.99968 1.03611C6.16104 1.03611 4.50011 1.88561 3.20166 2.85582C1.9029 3.82627 0.957157 4.92466 0.545819 5.44047C0.274826 5.76662 0.277249 6.2343 0.544833 6.57367L0.544827 6.57368L0.545641 6.57468C0.956296 7.08187 1.90229 8.17692 3.20172 9.14589C4.50012 10.1141 6.16105 10.9636 7.99968 10.9636C9.83832 10.9636 11.4993 10.1141 12.7977 9.1438C14.0966 8.17315 15.0424 7.07445 15.4537 6.55838C15.7074 6.2495 15.7071 5.74924 15.4533 5.44011ZM7.99968 9.75611C6.48691 9.75611 5.06807 9.02252 3.92942 8.17201C2.84501 7.36201 2.02502 6.4537 1.63351 5.9981C2.01625 5.53083 2.83628 4.6224 3.92306 3.81583C5.06351 2.96943 6.48657 2.24347 7.99968 2.24347C9.51274 2.24347 10.9317 2.96936 12.0701 3.81576C13.1557 4.62284 13.9761 5.53202 14.3662 5.99979C13.9762 6.46752 13.1557 7.3767 12.0701 8.18379C10.9317 9.0302 9.51274 9.75611 7.99968 9.75611Z" fill="#545F7D" stroke="#545F7D" stroke-width="0.2"/>
</svg>
